<?xml version="1.0" encoding="UTF-8"?>
<svg id="_图层_1" data-name="图层_1" xmlns="http://www.w3.org/2000/svg" version="1.1" viewBox="0 0 800 800">
  <!-- Generator: Adobe Illustrator 29.1.0, SVG Export Plug-In . SVG Version: 2.1.0 Build 142)  -->
  <path id="path2187" d="M378.1007,508.2476c-17.6288-1.4709-34.4917-5.9685-54.4052-14.5107-4.5262-1.9416-4.7676-2.2863-2.9056-4.1482,1.862-1.862,2.799-1.8447,11.2785.2078,18.6122,4.5052,34.9294,3.93,54.6769-1.9275l8.6445-2.5642,7.8451,6.4564c4.3148,3.551,11.1054,8.0962,15.0903,10.1004,6.3469,3.1922,6.8806,3.7355,4.3046,4.382-2.8995.7277-31.247,3.4565-32.479,3.1264-.3488-.0934-5.7714-.5985-12.0501-1.1224ZM520.0301,442.6518c-.3793-1.2209-1.5132-4.5029-2.5198-7.2935-1.6734-4.6393-1.6381-5.2123.4124-6.6916,9.3023-6.711,22.6504-21.1096,25.345-23.8969-1.4041,5.0756-2.5424,10.1513-4.8551,15.227-5.1517,9.4943-16.0064,24.8747-17.066,24.8747-.3447,0-.9371-.9989-1.3164-2.2198ZM549.9733,319.3996c-4.5409-2.5978-22.9709-7.884-30.3758-8.7126l-8.0741-.9035-2.1548-6.3422c-3.8133-11.2234-8.7144-19.4539-19.5369-32.8084l-10.5883-13.0655,10.2056-16.726,10.2057-16.726,2.8641,2.6907,2.8641,2.6907,42.2299,68.3682c3.3928,10.5504,5.9526,22.7562,4.7526,22.6616-.2692-.0212-1.3457-.5284-2.3922-1.127ZM369.2217,275.278c-5.5979-1.1462-17.6514-1.8814-32.6181-1.9896l-23.739-.1715-.6683-3.23c-1.8319-8.8536-3.2054-27.9854-3.2147-44.7795l-.0104-18.7177,11.9928-5.9574,11.9928-5.9574,67.6249,57.8241c-4.4091-.4528-7.0569,2.5057-15.5045,17.3244-2.4417,4.2833-5.0103,7.7169-5.7079,7.6303-.6976-.0866-5.264-.9756-10.1475-1.9755Z" style="fill: #fe3333;"/>
  <path id="path2185" d="M264.7191,446.1264c-23.0175-30.5466-34.3908-63.0707-34.3908-98.3476v-10.6559l12.0501.7916,12.0501.7916,36.1332,85.7697-8.2362,15.8835c-4.5299,8.7359-8.6218,15.8936-9.093,15.906-.4712.0124-4.3022-4.55-8.5134-10.1386ZM401.5907,443.9053c-9.2268-9.5288-18.2108-21.3321-25.6197-33.6593l-5.9867-9.9609,8.2592-10.8248c5.2741-6.9123,11.5547-17.652,17.3768-29.7138,9.7418-20.1825,8.7048-19.1596,17.0723-16.8387l64.0176,69.6187-.8827,6.6931-.8827,6.6931-10.2778,5.1676c-13.1313,6.6023-29.4183,12.8117-44.3026,16.8903l-11.726,3.2132-7.0478-7.2785Z" style="fill: #009865;"/>
  <path id="path2183" d="M57.8971,624.0377c4.3434-8.1972,10.1504-19.0424,12.9045-24.1002l5.0073-9.1961h22.6152l-12.0628,24.1002-12.0628,24.1002h-24.2985l7.8971-14.9041ZM111.0957,637.8762c0-.6384,2.9199-7.7947,6.4887-15.903l6.4887-14.7423h11.2693c6.1981,0,11.2481.4281,11.2222.9513-.0259.5232-2.7372,7.5154-6.0251,15.5383l-5.9779,14.587-11.733.3647c-6.5162.2025-11.733-.1514-11.733-.796ZM171.9805,621.8492l26.0029-17.0465,4.7566,4.6426c2.6161,2.5534,4.7566,5.1201,4.7566,5.7036s-7.8484,6.1708-17.4409,12.4162l-17.4409,11.3553-13.3185-.0123-13.3185-.0123,26.0029-17.0465ZM238.5732,633.868l-4.9544-5.0737-14.0124-.004-14.0124-.0041,7.6106-5.0656c4.1858-2.7861,8.4525-5.0675,9.4815-5.0697,1.029-.0022-2.327-4.2301-7.4577-9.3953l-9.3286-9.3913,7.3322-4.8683,7.3322-4.8683,22.613,23.4557c12.4371,12.9007,22.6252,23.8838,22.6402,24.4071s-4.9941.9513-11.1313.9513h-11.1585l-4.9544-5.0737ZM279.645,638.3666c-.365-.3649,1.1221-11.0872,3.3045-23.8273l3.9681-23.1638,11.0268-.3665c9.9-.329,11.0214-.1346,10.9743,1.9026-.0289,1.248-1.3325,11.9727-2.897,23.8325l-2.8445,21.5634-11.4343.3613c-6.2889.1987-11.7329.0627-12.0979-.3022ZM315.5539,634.1851l.3937-4.7566,16.8067-.3539,16.8067-.3539v10.2211h-34.4008l.3937-4.7566ZM361.8317,637.9904c-.4257-.7189,1.0786-45.3175,1.583-46.932.0545-.1744,4.9508-.3171,10.8807-.3171h10.7817v48.2004h-11.341c-6.2376,0-11.5945-.4281-11.9044-.9513ZM397.7615,638.4578c0-.4631,27.5091-24.9605,31.9894-28.4872,1.8692-1.4714,2.9332-1.1442,7.9168,2.4348,3.1666,2.274,5.7574,4.2988,5.7574,4.4994s-5.4769,5.241-12.1709,11.2009l-12.1709,10.8361h-10.6609c-5.8635,0-10.6609-.2178-10.6609-.4839ZM482.7464,633.868l-6.8003-5.0737h-31.26l5.0178-4.5333c2.7598-2.4933,6.4593-4.9192,8.221-5.3908,2.9874-.7998,2.462-1.402-7.7973-8.9372l-11.0005-8.0796,5.8804-5.556c3.2342-3.0558,6.3417-5.5497,6.9056-5.5421.9882.0134,61.6899,44.2881,64.304,46.9022.8669.8669-3.2591,1.2844-12.693,1.2844h-13.9774l-6.8003-5.0737ZM574.0736,638.0572c0-.4865,6.3361-7.3065,14.0803-15.1557,7.7441-7.8491,13.8546-15.0141,13.5787-15.9222-.2759-.908-2.8741-2.7926-5.7737-4.1879-4.7677-2.2942-7.9325-6.7157-7.9325-11.0824,0-2.8609,23.7191,3.4463,31.111,8.2729,10.4068,6.7952,9.2077,11.7331-6.5944,27.1545l-12.0968,11.8054h-13.1863c-7.2525,0-13.1863-.398-13.1863-.8845ZM679.8592,637.179c-18.9176-3.0944-33.6818-8.4885-41.7298-15.2459l-3.8053-3.195,12.0501-.0295c10.8039-.0265,12.7969.3492,19.2708,3.6328,9.2763,4.7049,22.6517,6.928,37.1278,6.1708,11.8547-.6201,17.1416-2.3908,21.4925-7.1985,2.1269-2.3502,3.8305-2.6667,14.3523-2.6667,11.792,0,11.9283.0351,11.0735,2.854-1.9387,6.3931-8.8224,11.3401-20.2346,14.5416-9.0439,2.5372-37.1039,3.1802-49.5973,1.1366ZM566.874,618.6142c-15.8688-4.0829-23.2428-9.1028-23.2428-15.8227,0-7.5264,7.3463-11.4398,24.0974-12.8368,8.9752-.7485,9.932-.6063,10.5442,1.5673.3703,1.3147,1.0424,3.6748,1.4936,5.2444.7263,2.527.365,2.854-3.1538,2.854-5.2731,0-8.8811,2.0612-8.8811,5.0737,0,2.8156,3.3822,4.9051,11.1457,6.8855l5.4522,1.3909-4.1765,3.9928-4.1766,3.9927-9.1022-2.3418ZM632.4215,608.5435c0-4.2803,7.2679-11.1495,14.7643-13.9543,26.3418-9.8557,83.6428-2.1409,98.0569,13.2021l3.0484,3.2449h-12.3883c-10.5082,0-12.8825-.3888-15.6454-2.562-10.3916-8.174-44.0869-11.3281-56.3837-5.2778-3.2816,1.6146-6.3167,4.0391-6.7447,5.3877-.6968,2.1955-2.0302,2.4521-12.7429,2.4521-11.0484,0-11.9646-.1909-11.9646-2.4927ZM515.3239,605.1029c-.347-1.2713-.9965-4.0239-1.4432-6.1168-.4468-2.0929-1.1091-4.8042-1.4718-6.0251-.5956-2.0046.5093-2.2198,11.4013-2.2198,6.6334,0,12.3127.4281,12.6206.9513.3079.5232.9197,2.6637,1.3594,4.7566.7951,3.7842.7472,3.8211-8.6149,6.655-5.178,1.5673-10.2708,3.1783-11.3175,3.5799-1.1746.4507-2.1445-.1545-2.5339-1.5812ZM106.9117,595.1808l2.1171-4.4395h33.3785c18.3582,0,33.3785.2002,33.3785.4449s-.6266,2.2425-1.3925,4.4395l-1.3925,3.9946h-68.2061l2.1171-4.4395ZM399.0299,483.3121c-19.9496-2.134-55.4702-13.5395-54.1465-17.3862.6222-1.808,5.086-1.5224,20.1256,1.2879,10.6923,1.998,13.8031,2.1006,24.1002.7951,6.5028-.8245,15.9313-2.7368,20.9523-4.2496l9.129-2.7506,7.6343,6.2014c4.1989,3.4107,10.8226,7.978,14.7194,10.1494l7.085,3.9481-11.2499,1.4428c-10.6015,1.3596-28.4476,1.621-38.3495.5619ZM292.1902,426.471c-6.6657-7.4491-15.6247-21.1047-21.4591-32.7088-10.6728-21.2271-16.3025-44.6505-16.3025-67.829v-13.3262l12.3672.8313c6.802.4572,17.5757,1.1792,23.9417,1.6044l11.5744.7731.8141,7.9461c1.6093,15.7081,8.0252,29.3686,19.4142,41.3364l6.7703,7.1143-15.377,29.036c-8.4574,15.9698-15.745,29.3675-16.1947,29.7726-.4497.4051-2.9465-1.6425-5.5485-4.5503ZM423.1061,417.2812c-8.3431-8.9998-29.1499-38.3826-29.1499-41.1648,0-.6489,2.5426-4.3011,5.6503-8.1161,7.5231-9.2354,17.0068-25.1179,23.5905-39.5075,2.9525-6.4531,6.0004-11.7257,6.7731-11.7168.7727.0089,5.7942,1.4181,11.159,3.1315,12.0198,3.839,30.6893,7.695,46.8467,9.6757l12.2057,1.4963.7957,7.6132c1.2463,11.924.9353,36.3652-.6389,50.209l-1.4347,12.6165-13.4694,6.6299c-11.4937,5.6574-38.5032,15.5035-49.8328,18.1661-2.9912.703-4.4419-.3457-12.4953-9.0331ZM544.1408,417.3998c-.4761-1.9826-1.7086-5.2754-2.7389-7.3174-1.8018-3.571-1.7345-3.8107,1.7636-6.2834,2.0002-1.4139,8.3968-7.1636,14.2146-12.777l10.5778-10.2062-3.2735,7.4269c-3.4828,7.9018-10.4276,19.8715-16.1808,27.8887l-3.4971,4.8732-.8656-3.6048ZM562.0235,290.6094c-6.9764-2.3085-15.8853-4.5349-19.7976-4.9475-7.0598-.7446-7.1253-.7903-8.706-6.0723-2.9466-9.8466-8.9185-19.8913-19.8343-33.3609-9.7006-11.9701-10.6594-13.615-9.0395-15.5076.9967-1.1644,5.6784-8.5922,10.4039-16.506l8.5917-14.3889,6.3424,6.1441c14.8461,14.3821,27.9753,33.637,36.17,53.046,3.6378,8.616,10.4565,31.4727,10.4565,35.0508,0,1.4185.525,1.543-14.587-3.4576ZM386.3456,249.933c-8.6624-1.1785-19.6407-1.6112-31.4026-1.2377-17.6793.5614-18.0981.5133-18.7122-2.148-1.7268-7.4835-3.1396-27.574-3.149-44.7771l-.0104-19.2231,5.433-3.1839c13.1649-7.7151,37.9913-16.0617,53.5492-18.003,6.0568-.7558,6.7808-.5012,16.0891,5.6558,11.2998,7.4743,22.5144,18.2758,29.4895,28.4033l4.8979,7.1116-8.1285,8.6167c-10.3614,10.9836-18.4204,21.534-24.7002,32.3361-3.6313,6.2462-5.6443,8.5006-7.5003,8.3995-1.3953-.076-8.5302-.9535-15.8554-1.9501Z" style="fill: #333;"/>
</svg>