<?xml version="1.0" encoding="UTF-8"?>
<svg id="_图层_1" data-name="图层_1" xmlns="http://www.w3.org/2000/svg" version="1.1" viewBox="0 0 800 800">
  <!-- Generator: Adobe Illustrator 29.1.0, SVG Export Plug-In . SVG Version: 2.1.0 Build 142)  -->
  <path d="M370.2061,529.7006h-14.9587c-.2582,0-.6061.1758-.7782.4377l-7.5243,11.0638-26.0263,38.7401c-.1721.3517-.1721.6959,0,1.0439l26.0263,38.8261,7.5243,10.9777c.1721.1758.5201.3442.7782.3442h14.9587c.5163,0,.9503-.3442.9503-.8606v-99.6114c0-.5238-.434-.9616-.9503-.9616ZM360.4369,617.5598c0,.5201-.348.8606-.8643.8606-.3442,0-.6061-.0861-.7782-.3442l-11.8495-17.4656-13.1441-19.6282c-.2582-.3517-.2582-.6959,0-1.0439l13.1441-19.5421,11.8495-17.5516c.5201-.7745,1.6426-.4303,1.6426.5201v74.1951ZM630.7493,518.2065c0-12.1975-10.0349-22.2286-22.2249-22.2286-12.2761,0-22.2211,10.0349-22.2211,22.2286,0,12.276,9.9451,22.2211,22.2211,22.2211,12.19,0,22.2249-9.945,22.2249-22.2211ZM596.9406,518.2065c0-6.3158,5.1858-11.5913,11.5838-11.5913,6.3158,0,11.5914,5.2756,11.5914,11.5913,0,6.3943-5.2756,11.5839-11.5914,11.5839-6.4018-.0037-11.5838-5.1895-11.5838-11.5839ZM608.5208,545.7856c-19.1081,0-34.673,15.6547-34.673,34.6767,0,19.1156,15.5611,34.6767,34.673,34.6767,19.0258,0,34.6805-15.5574,34.6805-34.6767,0-19.0258-15.6547-34.6767-34.6805-34.6767ZM608.5208,604.5018c-13.3162,0-24.0395-10.7196-24.0395-24.0432,0-13.2264,10.7233-24.0358,24.0395-24.0358,13.2339,0,24.0432,10.8094,24.0432,24.0357,0,13.3237-10.8093,24.0432-24.0432,24.0433ZM699.2348,615.1353c19.1081,0,34.759-15.5574,34.759-34.6767,0-19.0221-15.6509-34.6767-34.759-34.6767-19.1979,0-34.7666,15.6547-34.7666,34.6767,0,19.1194,15.5724,34.6767,34.7665,34.6767h0ZM699.2348,556.4266c13.2264,0,24.0357,10.8094,24.0357,24.0357,0,13.3237-10.8094,24.0432-24.0357,24.0432-13.3199,0-24.0432-10.7196-24.0432-24.0432.0038-13.2302,10.7271-24.0357,24.0432-24.0357ZM517.8142,545.7856c-19.1081,0-34.6767,15.6547-34.6767,34.6767,0,19.1156,15.5649,34.6767,34.6767,34.6767,19.0258,0,34.6768-15.5574,34.6768-34.6767,0-19.0258-15.6509-34.6767-34.6768-34.6767ZM517.8142,604.5018c-13.3199,0-24.0395-10.7196-24.0395-24.0432,0-13.2264,10.7196-24.0358,24.0395-24.0358,13.2301,0,24.0395,10.8094,24.0395,24.0357,0,13.3237-10.8093,24.0432-24.0395,24.0433ZM128.2546,544.5808c-.3442,0-.6061.1684-.7782.3442l-57.156,84.8248c-.1721.1758-.1721.3517-.1721.5201,0,.5201.348.8606.8643.8606h10.7233c.348,0,.6061-.1684.7782-.3442l34.3288-50.9263c.4303-.6959,1.5565-.3517,1.5565.5201v49.8899c0,.5201.434.8606.9504.8606h8.9049c.4303,0,.8643-.3442.8643-.8606v-84.8285c0-.4303-.4303-.8606-.8643-.8606ZM313.9106,580.4585c0-.1684,0-.3442-.0861-.5201l-33.6366-49.8038c-.1721-.2619-.434-.4377-.6922-.4377h-95.4658c-.348,0-.6061.1758-.7782.4377l-36.4914,54.1291c-.1721.2544-.434.4303-.7782.4303-.434,0-.8643-.4303-.8643-.9503v-53.0889c0-.5201-.434-.9578-.8643-.9578h-8.9049c-.5201,0-.8643.4377-.8643.9578v88.0276c0,.8606,1.1225,1.2048,1.5565.5201l52.9206-78.4342c.1721-.1758.434-.3442.6922-.3442h84.1364c.2582,0,.6061.1684.7782.3442l26.3742,39.1704c.0861.1758.1721.3517.1721.5201,0,.1758-.0861.3517-.1721.5276l-26.3742,39.0806c-.1721.2619-.5201.4303-.7782.4303h-78.6887c-.5201,0-.8643-.4303-.8643-.9503v-74.1053c0-.8606-1.1225-1.2123-1.6425-.5201l-57.2458,84.8286c-.0861.1758-.0861.3517-.0861.5201,0,.5201.3442.8606.8643.8606h10.7233c.2582,0,.6061-.1684.7782-.3442l34.2427-50.9263c.1721-.2619.5201-.3517.7782-.3517.5201,0,.8643.3517.8643.868v49.8899c0,.5201.4303.8606.9504.8606h95.0318c.2582,0,.5201-.1684.6922-.3442l33.6366-49.8038c.0861-.1684.0861-.3442.0861-.5201h0Z" style="fill: #008c44; fill-rule: evenodd;"/>
  <path d="M211.0964,556.4265h62.2595c.5201,0,.8643-.4303.8643-.868v-8.9086c0-.5126-.348-.8606-.8643-.8606h-72.8967c-.5201,0-.9504.3517-.9504.8606v30.2692c0,.4303.434.868.9504.868h72.8967c.5201,0,.8643-.4377.8643-.868v-8.9086c0-.5126-.348-.9503-.8643-.9503h-62.2595c-.5201,0-.8643-.3442-.8643-.8606v-8.9086c0-.434.3442-.8643.8643-.8643ZM199.5088,614.271c0,.4377.434.8606.9504.8606h72.8967c.5201,0,.8643-.4228.8643-.8606v-8.9086c0-.5201-.348-.8606-.8643-.8606h-62.2595c-.5201,0-.8643-.4303-.8643-.9503v-8.9086c0-.4303.3442-.8606.8643-.8606h62.2595c.5201,0,.8643-.4377.8643-.868v-8.9012c0-.5201-.348-.868-.8643-.868h-72.8967c-.5201,0-.9504.3517-.9504.868v30.258ZM316.5896,574.5843c.348.5201,1.1262.5201,1.4742,0l29.3113-43.4956c.0861-.0861.1721-.2619.1721-.4303,0-.5201-.434-.9578-.8643-.9578h-10.7233c-.3442,0-.6061.1758-.7782.4377l-17.1214,25.3341c-.1721.2544-.434.4303-.6922.4303-.3442,0-.6061-.1758-.7782-.4303l-17.1213-25.3341c-.0861-.2619-.4303-.4377-.6922-.4377h-10.7196c-.6922,0-1.1262.8606-.7782,1.3881l29.3113,43.4956h0ZM318.0637,586.344c-.348-.5201-1.1262-.5201-1.4742,0l-29.3113,43.4095c-.0861.1758-.0861.3517-.0861.5201,0,.5201.3442.8606.8643.8606h10.7196c.2619,0,.6061-.1684.6922-.3442l17.1214-25.4239c.1758-.1684.434-.3442.7782-.3442.2582,0,.5201.1758.6922.3442l17.1213,25.4239c.1721.1758.434.3442.7782.3442h10.7233c.4303,0,.8643-.3442.8643-.8606,0-.1684-.0861-.3442-.1721-.5201l-29.3113-43.4095ZM427.1076,556.4265c7.4345,0,14.5247,3.5432,19.1081,9.4287.0823.2544.3442.3442.6922.3442h10.3753c.5163,0,.9503-.3442.9503-.8606,0-.1758-.0861-.2619-.1721-.4377-5.7957-11.6699-17.8136-19.1081-30.9539-19.1081-19.2017,0-34.6805,15.4863-34.6805,34.6767,0,19.1156,15.4788,34.6767,34.6805,34.6767,13.1441,0,25.162-7.4307,31.0399-19.1904h-.0823c.0823-.0861.1721-.2619.1721-.3517,0-.5201-.434-.9503-.9503-.9503h-10.3753c-.348,0-.6061.1758-.7782.3442-13.9223,18.3336-43.0653,8.4784-43.0653-14.5285-.0037-13.3237,10.7196-24.0432,24.0395-24.0432ZM129.639,529.7006h-10.7233c-.348,0-.6061.1758-.7782.4377l-67.1871,99.6115c-.0861.1758-.0861.3517-.0861.5201,0,.5201.3442.8606.8643.8606h10.7233c.2582,0,.6061-.1684.6922-.3442l67.2732-99.6975c.0861-.0861.0861-.2619.0861-.4303.0037-.5201-.3442-.9578-.8643-.9578h0Z" style="fill: #008c44; fill-rule: evenodd;"/>
  <path d="M708.4016,530.5612c-.4303-.0786-.782-.4228-.782-.8606,0-.1684.086-.4303.1758-.5201l36.0574-47.8133c.086-.1758.1758-.3517.1758-.5201,0-.5201-.3442-.9503-.8605-.9503h-11.1573c-.2544,0-.5163.1684-.6922.4303l-45.9164,60.7928c-.0823.1684-.1721.3442-.1721.5987,0,.6061.6061,1.0364,1.3021.782,4.0633-1.3806,8.3848-2.0766,12.7101-2.0766,22.135,0,40.0346,17.8959,40.0346,40.0309,0,22.0565-17.8996,40.0384-40.0346,40.0384-22.0565,0-40.0384-17.9857-40.0384-40.0384,0-8.7328,2.8548-17.2037,8.1266-24.1218l56.4675-74.9696c.1758-.1758.1758-.3517.1758-.5201,0-.5201-.348-.9503-.8643-.9503h-11.1498c-.2619,0-.5238.1684-.6959.4303l-52.4903,69.6079c-1.8147,2.4245-3.4572,5.0997-4.8416,7.8722-3.3711-6.746-8.3025-12.7063-14.2666-17.3795,4.6732-6.4879,7.094-14.2703,7.094-22.2211,0-21.1847-17.1214-38.306-38.2237-38.306-31.126,0-49.1977,35.2754-31.0437,60.4411-6.0501,4.6695-10.8954,10.6335-14.2666,17.4656-9.4287-18.6778-27.4144-28.0168-45.4001-28.0168-18.0755,0-36.0611,9.3389-45.4001,28.0168-8.991-17.8959-26.5463-27.5865-44.3561-28.0168-14.3563-.2544-28.8848,5.4514-39.3462,17.6415-.1721.1758-.434.2619-.6922.2619-.5163,0-.8643-.3517-.8643-.868v-16.1635c0-.5201-.434-.9578-.9503-.9578h-8.8189c-.5201,0-.9503.4377-.9503.9578v99.6115c0,.5201.4303.8606.9503.8606h8.8189c.5201,0,.9503-.3442.9503-.8606v-16.2533c0-.4303.348-.868.8643-.868.2582,0,.5201.1758.6922.3517,10.4614,12.276,24.9899,17.9857,39.3462,17.7275,17.8959-.4377,35.3652-10.1209,44.4459-28.1066,9.2529,18.6778,27.2348,28.0093,45.3102,28.0093,17.9857.0935,35.9713-9.2529,45.4001-28.0093,9.2529,18.6778,27.2348,28.0093,45.3065,28.0093,17.9894.0935,35.9751-9.2529,45.4001-28.0093,8.5607,17.2112,26.116,28.0093,45.314,28.0093,28.0168,0,50.7542-22.6551,50.7542-50.6719-.0075-24.466-17.4731-45.4823-41.5986-49.8974h.0002ZM467.1423,580.4586c0,4.8154.6847,9.6233,1.9643,14.1842h-4.0409c-.3517,0-.6959.2619-.7782.6061-6.8321,17.2112-21.5326,25.162-36.2332,25.3341-20.4102.2544-40.9027-14.4387-40.9027-40.1282,0-22.135,17.8136-40.0309,39.9523-40.0309.2544,0,.6024.0861.9503.0861,15.9952.3442,30.2654,10.2893,36.2332,25.162.0823.3442.4265.5201.7782.5201h4.0633c-1.2946,4.5834-1.9868,9.4287-1.9868,14.2666h0ZM517.8142,620.5007c-22.1388,0-40.0346-17.9857-40.0346-40.0384s17.8959-40.0309,40.0346-40.0309c22.049,0,40.0346,17.9857,40.0346,40.0309s-17.9857,40.0384-40.0346,40.0384ZM608.5207,620.5007c-22.135,0-40.0346-17.9857-40.0346-40.0384,0-16.5152,10.1171-31.2981,25.3341-37.2696.348-.0786.6061-.4303.6061-.7745s-.1721-.6061-.348-.782c-8.2127-5.0137-13.1441-13.9223-13.1441-23.4296,0-15.2207,12.3658-27.5865,27.5827-27.5865s27.5865,12.3658,27.5865,27.5865c0,9.5073-4.9276,18.4159-13.0581,23.4296-.6024.3517-.5201,1.3021.1758,1.5565,15.303,6.0576,25.3341,20.8405,25.3341,37.2696.0075,22.0527-17.8921,40.0384-40.0346,40.0384h0Z" style="fill: #008c44; fill-rule: evenodd;"/>
  <path d="M250.3566,180.1794h-109.8222c1.9868-.8643,3.9773-1.6425,5.9678-2.3347l103.8544.0861c.6061,0,1.1225.4303,1.1225,1.1225,0,.6099-.5201,1.1262-1.1225,1.1262ZM172.9625,184.7665h-42.3694c1.6425-.8643,3.199-1.5602,4.7555-2.3347h37.6176c.6922,0,1.1225.5163,1.1225,1.2085,0,.6061-.434,1.1262-1.1262,1.1262ZM269.3786,189.3462H122.2906c1.3844-.8643,2.7688-1.6425,4.1494-2.3347h142.9387c.6061,0,1.1262.5163,1.1262,1.1225,0,.6959-.5201,1.2123-1.1262,1.2123ZM164.4018,193.9296h-49.2913c1.2123-.8643,2.4208-1.6425,3.547-2.3385h45.7443c.6061,0,1.1225.5201,1.1225,1.1262,0,.6959-.5163,1.2123-1.1224,1.2123ZM208.3277,193.9296h-20.4962c-.6061,0-1.1225-.5201-1.1225-1.2085,0-.6061.5201-1.1262,1.1225-1.1262h20.4962c.6061,0,1.1262.5201,1.1262,1.1262,0,.6922-.5201,1.2085-1.1262,1.2085ZM283.4731,198.427H108.7125c1.0364-.7782,2.0728-1.5565,3.113-2.2487h171.6476c.6061,0,1.1262.5163,1.1262,1.1225s-.5201,1.1262-1.1262,1.1262ZM175.5554,203.0104h-72.6348c1.0364-.8643,1.9905-1.6425,2.9409-2.3385l69.694.0861c.6061,0,1.1262.5201,1.1262,1.1262s-.5201,1.1262-1.1262,1.1262ZM217.8424,203.0104h-28.795c-.6061,0-1.1225-.5201-1.1225-1.1225,0-.6061.5201-1.1262,1.1225-1.1262h28.795c.6061,0,1.1262.5201,1.1262,1.1262,0,.6024-.5238,1.1225-1.1262,1.1225ZM294.7164,207.5938H97.731c.9504-.8643,1.7286-1.6425,2.5929-2.3385l194.3926.0861c.6061,0,1.1225.5163,1.1225,1.1225,0,.6099-.5201,1.13-1.1225,1.13ZM222.1639,212.1772h-115.0079c-.6061,0-1.1262-.5201-1.1262-1.1225,0-.6922.5201-1.1262,1.1262-1.1262h115.0079c.6061,0,1.1262.434,1.1262,1.1262,0,.6024-.5201,1.1225-1.1262,1.1225ZM291.3416,216.7569c.6922-.7782,1.4704-1.5565,2.1626-2.3347l-202.6913-.0823c-.6922.6922-1.3844,1.4704-2.2487,2.417h202.7774ZM100.2378,219.0055h108.0898c.6061,0,1.1262.5201,1.1262,1.1225,0,.6922-.5201,1.2123-1.1262,1.2123h-108.0898c-.6061,0-1.1225-.5201-1.1225-1.2123,0-.6024.5201-1.1225,1.1225-1.1225ZM194.5812,230.421h-99.5329c-.6061,0-1.1225-.5201-1.1225-1.1225,0-.6061.5201-1.1225,1.1225-1.1225h99.5329c.6061,0,1.1225.5163,1.1225,1.1225s-.5163,1.1225-1.1225,1.1225ZM189.3916,239.5878h-96.0682c-.6061,0-1.1262-.5201-1.1262-1.1225s.5201-1.1262,1.1262-1.1262h96.0682c.6061,0,1.1225.5201,1.1225,1.1262s-.5163,1.1225-1.1225,1.1225ZM177.284,248.7546h-82.2356c-.6061,0-1.1225-.5163-1.1225-1.1225,0-.6922.5201-1.2123,1.1225-1.2123h82.2357c.6061,0,1.1225.5201,1.1225,1.2123.0037.6024-.5163,1.1225-1.1225,1.1225ZM139.3221,257.8354h-33.0304c-.6061,0-1.1262-.434-1.1262-1.1262,0-.6061.5201-1.1225,1.1262-1.1225h33.0305c.6922,0,1.2123.5163,1.2123,1.1225,0,.6922-.5163,1.1262-1.2123,1.1262ZM98.8572,257.8354h-3.8052c-.6061,0-1.1225-.434-1.1225-1.1262,0-.6061.5201-1.1225,1.1225-1.1225h3.8052c.6061,0,1.1225.5163,1.1225,1.1225,0,.6922-.5201,1.1262-1.1225,1.1262ZM151.9499,257.8354c-.6061,0-1.1262-.434-1.1262-1.1262,0-.6061.5201-1.1225,1.1262-1.1225h4.6695c.6061,0,1.1225.5163,1.1225,1.1225,0,.6959-.5201,1.1262-1.1225,1.1262h-4.6695ZM178.1483,257.8354h-4.5834c-.6922,0-1.1225-.434-1.1225-1.1262,0-.6061.4303-1.1225,1.1225-1.1225h4.5834c.6061,0,1.1225.5163,1.1225,1.1225.0037.6922-.5163,1.1262-1.1225,1.1262ZM100.5858,266.9985h-3.8052c-.6061,0-1.1262-.5201-1.1262-1.1225s.5201-1.1225,1.1262-1.1225h3.8052c.6061,0,1.1225.5201,1.1225,1.1225s-.5163,1.1225-1.1225,1.1225ZM134.2224,266.9985h-24.4735c-.6061,0-1.1262-.5201-1.1262-1.1225s.5201-1.1225,1.1262-1.1225h24.4735c.6061,0,1.1225.5201,1.1225,1.1225s-.5163,1.1225-1.1225,1.1225ZM179.0163,266.9985h-3.7191c-.6922,0-1.2085-.5201-1.2085-1.1225s.5201-1.1225,1.2085-1.1225h3.7191c.6061,0,1.1225.5201,1.1225,1.1225s-.5163,1.1225-1.1225,1.1225ZM133.3581,276.1653h-21.8769c-.6061,0-1.1225-.5163-1.1225-1.1262,0-.6922.5201-1.2085,1.1225-1.2085h21.8769c.6061,0,1.1262.5201,1.1262,1.2085,0,.6099-.5201,1.1262-1.1262,1.1262ZM135.0867,285.3321h-20.1483c-.6922,0-1.2123-.5201-1.2123-1.2123,0-.6061.5201-1.1225,1.2123-1.1225h20.1483c.6061,0,1.1225.5201,1.1225,1.1225,0,.6922-.5163,1.2123-1.1225,1.2123ZM155.755,285.3321h-5.4477c-.6922,0-1.2085-.5201-1.2085-1.2123,0-.6061.5201-1.1225,1.2085-1.1225h5.4477c.6061,0,1.1262.5201,1.1262,1.1225-.0037.6922-.5238,1.2123-1.1262,1.2123ZM156.6193,294.4129h-27.0664c-.6061,0-1.1225-.5201-1.1225-1.1262,0-.6024.5163-1.1225,1.1225-1.1225h27.0664c.6061,0,1.1225.5201,1.1225,1.1225,0,.6061-.5163,1.1262-1.1225,1.1262ZM166.9086,303.5759h-11.5015c-.6061,0-1.1262-.5201-1.1262-1.1225,0-.6922.5201-1.2123,1.1262-1.2123h11.5015c.6922,0,1.2085.5201,1.2085,1.2123,0,.6061-.5163,1.1225-1.2085,1.1225ZM168.6372,312.7428h-4.5834c-.6061,0-1.1225-.5201-1.1225-1.2085,0-.6061.5201-1.1262,1.1225-1.1262h4.5834c.6922,0,1.2123.5201,1.2123,1.1262,0,.6884-.5163,1.2085-1.2123,1.2085ZM227.2674,312.7428h-30.4376c-.6061,0-1.1225-.5201-1.1225-1.2085,0-.6061.5201-1.1262,1.1225-1.1262h30.4376c.6922,0,1.2123.5201,1.2123,1.1262,0,.6884-.5201,1.2085-1.2123,1.2085ZM177.284,321.8235h-4.5834c-.6922,0-1.1225-.5201-1.1225-1.1225,0-.6061.434-1.1225,1.1225-1.1225h4.5834c.6061,0,1.1225.5163,1.1225,1.1225.0037.6024-.5163,1.1225-1.1225,1.1225ZM244.5609,321.8235h-58.1101c-.6061,0-1.1225-.5201-1.1225-1.1225,0-.6061.5201-1.1225,1.1225-1.1225h58.1101c.6061,0,1.1262.5163,1.1262,1.1225,0,.6024-.5201,1.1225-1.1262,1.1225ZM50.2581,324.1583h196.0351c.6061,0,1.1262.5201,1.1262,1.1262s-.5201,1.1225-1.1262,1.1225H50.3442c0-.5201-.0861-1.2983-.0861-2.0766,0,0,0-.1721,0-.1721ZM270.4188,404.1452h-65.8065c-.6922,0-1.1225-.5201-1.1225-1.2123,0-.6024.4303-1.1225,1.1225-1.1225h65.8065c.6061,0,1.1225.5201,1.1225,1.1225,0,.6959-.5201,1.2123-1.1225,1.2123ZM258.3111,413.1437h-54.5631c-.6922,0-1.1262-.5201-1.1262-1.1262,0-.5201.434-1.0364,1.1262-1.0364h54.5631c.6922,0,1.2123.5201,1.2123,1.0364-.0037.6061-.5201,1.1262-1.2123,1.1262ZM248.0218,422.3067h-47.7348c-.6061,0-1.1225-.5201-1.1225-1.1262,0-.6959.5163-1.1262,1.1225-1.1262h47.7348c.6061,0,1.1225.4303,1.1225,1.1262,0,.6061-.5163,1.1262-1.1225,1.1262ZM294.7164,426.8864H100.2378c-.7782-.6959-1.5565-1.3881-2.4208-2.1626l196.8994-.1758c.6061,0,1.1225.5201,1.1225,1.2123,0,.6099-.5201,1.1262-1.1225,1.1262ZM239.3713,431.4698h-42.5415c-.6061,0-1.1225-.5201-1.1225-1.2048,0-.6061.5201-1.1262,1.1225-1.1262h42.5452c.6061,0,1.1262.5201,1.1262,1.1262-.0037.6847-.5238,1.2048-1.1299,1.2048ZM283.4731,436.0532H111.8254c-1.0364-.7745-2.0728-1.5565-3.113-2.331h174.7606c.6061,0,1.1262.5201,1.1262,1.1262,0,.6847-.5201,1.2048-1.1262,1.2048ZM223.0282,440.5543h-28.795c-.6061,0-1.1225-.5201-1.1225-1.1262s.5201-1.1262,1.1225-1.1262h28.795c.6061,0,1.1262.5201,1.1262,1.1262s-.5201,1.1262-1.1262,1.1262ZM269.3786,445.134H126.3539c-1.2946-.6959-2.679-1.4704-3.9773-2.2524h147.002c.6061,0,1.1262.5201,1.1262,1.1262s-.5201,1.1262-1.1262,1.1262ZM212.6529,449.7174h-21.8769c-.6061,0-1.1225-.5201-1.1225-1.1262s.5201-1.1262,1.1225-1.1262h21.8769c.6061,0,1.1225.5201,1.1225,1.1262s-.5163,1.1262-1.1224,1.1262ZM250.3566,454.3008h-104.0265c-1.8147-.6959-3.8052-1.4704-5.7919-2.2524l109.8222-.0786c.6061,0,1.1225.5201,1.1225,1.2048-.0037.6061-.5238,1.1262-1.1262,1.1262ZM200.5452,458.8804h-13.2301c-.6061,0-1.1262-.5201-1.1262-1.1262,0-.6884.5201-1.2048,1.1262-1.2048h13.2301c.6922,0,1.2123.5201,1.2123,1.2048,0,.6099-.5201,1.1262-1.2123,1.1262ZM210.3182,169.284c-4.1494-.348-8.5607-.5201-12.8859-.5201-4.3215,0-8.5607.1721-12.8822.5201-.4303.0861-.7782.434-.7782.8643,0,.5201.348.8643.8643.8643h25.596c.4303,0,.8643-.3442.8643-.8643,0-.4303-.3442-.7782-.7782-.8643ZM210.2321,462.8652c.5201,0,.8643-.4377.8643-.868s-.434-.8606-.8643-.8606h-25.596c-1.1262,0-1.2123,1.6426-.0861,1.7323,4.3215.3442,8.5607.5987,12.9682.5987,0,0,12.7138-.6024,12.7138-.6024ZM285.3775,223.5889c-.6061.6922-1.2123,1.4742-1.8147,2.2524H80.8716c.6884-.7782,1.2085-1.5602,1.8147-2.2524h202.6913ZM278.5455,232.7557c-.5201.6922-1.0364,1.4704-1.5565,2.2487H74.3837c.5163-.7782,1.0364-1.5565,1.5565-2.3347l202.6053.0861ZM272.7498,241.8328c-.4303.6922-.7782,1.4704-1.2085,2.1626l-202.7774.1758c.5163-.8643.9504-1.6425,1.3806-2.4208,0,0,202.6053.0823,202.6053.0823ZM267.8222,251.0033c-.2582.6061-.6922,1.3844-1.0364,2.1626l-202.6913.1721c.434-.9504.7782-1.7286,1.2123-2.5068,0,0,202.5155.1721,202.5155.1721ZM263.669,260.1664c-.2582.6099-.5163,1.3881-.8643,2.1664l-202.6876.0823c.3442-.8643.6922-1.6425,1.0364-2.4208l202.5155.1721ZM260.2979,269.3369c-.2582.6061-.5163,1.3806-.7782,2.2487H56.9181c.2582-.8643.5201-1.6425.7782-2.4208,0,0,202.6015.1721,202.6015.1721ZM257.5329,278.414c-.0861.6061-.3442,1.2946-.5201,2.0728l-202.6913.2619c.2582-1.0402.434-1.7286.6922-2.5106l202.5192.1759ZM255.4563,287.5808c-.1721.6959-.2582,1.4704-.434,2.1626l-202.6053.0861c.0861-.7782.2582-1.5565.434-2.3347,0,0,202.6053.0861,202.6053.0861ZM253.9036,296.7438c-.0861.6922-.1759,1.4742-.2619,2.1626l-202.6053.0861c.0861-.7782.1721-1.5565.2619-2.3347,0,0,202.6053.0861,202.6053.0861ZM253.0355,305.8246c-.0861.5201-.0861,1.2983-.1721,2.0766l-202.6053.2582c0-1.0364.0861-1.8147.1721-2.5929l202.6053.2582ZM252.6913,314.9914v2.4208l-202.6913-.1721v-2.4208l202.6913.1721ZM253.2077,328.7416c.0861.7782.0861,1.5565.1721,2.2487h-64.3323c-.6061,0-1.1225-.5201-1.1225-1.1262,0-.6922.5201-1.1225,1.1225-1.1225,0,0,64.1602,0,64.1602,0ZM253.6417,333.239c.0861.8643.1721,1.6425.348,2.4208l-202.6913-.0861c-.0861-.6922-.1759-1.4704-.2619-2.2487l202.6053-.0861ZM254.2478,337.8186c.1721.8643.2582,1.6425.4303,2.4208l-71.6845-.0823c-.6061,0-1.1262-.5201-1.1262-1.2123,0-.6061.5201-1.1262,1.1262-1.1262,0,0,71.2542,0,71.2542,0ZM255.0223,342.4058c.1721.8643.2619,1.6388.434,2.3347H52.851c-.1721-.6922-.3442-1.4704-.434-2.2487,0,0,202.6053-.0861,202.6053-.0861ZM255.8903,346.9855c.1721.7782.3442,1.5565.5201,2.3347l-80.2489-.0861c-.6922,0-1.2123-.5163-1.2123-1.1225s.5201-1.1225,1.2123-1.1225h79.7288v-.0038ZM257.0128,351.5689c.1721.9504.434,1.7286.6061,2.4208l-202.6913-.1721c-.1721-.5201-.348-1.2983-.5163-1.9868,0,0,202.6015-.2619,202.6015-.2619ZM258.2251,356.1523c.1721.8643.4303,1.5565.6922,2.3347l-86.2167-.0861c-.6922,0-1.1225-.5201-1.1225-1.1262s.434-1.1225,1.1225-1.1225c0,0,85.5245,0,85.5245,0ZM259.5197,360.7357c.2582.7782.5201,1.5602.8643,2.4208l-202.6876-.1721c-.2582-.6922-.5201-1.4704-.7782-2.2487,0,0,202.6015,0,202.6015,0ZM261.0799,365.233c.3442.9504.6061,1.7286.9504,2.5068l-85.0044-.1721c-.6922,0-1.2123-.5201-1.2123-1.1262,0-.6922.5201-1.2085,1.2123-1.2085,0,0,84.054,0,84.054,0ZM262.8047,369.8164c.348.8643.6061,1.7286.9504,2.5068l-202.6913-.1721c-.2582-.6061-.6061-1.4704-.8606-2.2524,0,0,202.6015-.0823,202.6015-.0823ZM264.6231,374.3998c.434.8643.7782,1.6425,1.1262,2.4208l-87.8555-.1721c-.6922,0-1.2085-.434-1.2085-1.1262,0-.6061.5163-1.1225,1.2085-1.1225h86.7293ZM266.6959,378.9832c.434.9504.8643,1.7286,1.2123,2.4208l-202.6913-.1721c-.348-.5201-.6922-1.2983-1.0364-2.0766,0,0,202.5155-.1721,202.5155-.1721ZM268.9484,383.5629c.5201.9504.9504,1.7286,1.2983,2.4208l-86.3851-.1721c-.6061,0-1.1225-.5201-1.1225-1.1262s.5201-1.1262,1.1225-1.1262h85.0867s0,.0037,0,.0037ZM271.4515,388.1463c.5201.8643.8643,1.6425,1.2983,2.3347l-202.6053-.0861c-.4303-.6061-.8643-1.3844-1.2946-2.1626,0,0,202.6015-.0861,202.6015-.0861ZM274.1341,392.6436c.434.8643.9504,1.6425,1.4704,2.4208l-82.2357-.0861c-.6061,0-1.1262-.5201-1.1262-1.1225,0-.6922.5201-1.2123,1.1262-1.2123,0,0,80.7652,0,80.7652,0ZM276.989,397.227c.5201.8643,1.0364,1.6426,1.5565,2.4208l-202.6913-.0861c-.434-.6922-.9541-1.4704-1.4704-2.3347h202.6053ZM283.5591,406.3901c.6061.782,1.2123,1.564,1.8147,2.3385l-202.6913-.0861c-.6061-.6884-1.1262-1.4704-1.7286-2.1626,0,0,202.6053-.0898,202.6053-.0898ZM291.2555,415.4746c.7782.8606,1.5565,1.6426,2.2487,2.4171l-202.7774-.1684c-.6061-.6061-1.2983-1.3881-1.9905-2.0766,0,0,202.5192-.1721,202.5192-.1721ZM549.6361,180.1794l110.0803.0861c-1.9868-.8643-3.9773-1.6425-6.0538-2.3347h-104.0265c-.6922,0-1.1225.5201-1.1225,1.1225,0,.6099.434,1.1262,1.1225,1.1262h0ZM615.4426,169.284c.4303.0861.7782.434.7782.8643,0,.5201-.348.8643-.8605.8643h-25.5997c-.4303,0-.8643-.3442-.8643-.8643,0-.4303.348-.7782.782-.8643,8.7328-.6922,17.3833-.6922,26.0262.0861l-.2619-.0861h0ZM615.4426,462.8651c.4303,0,.7782-.4377.7782-.868s-.348-.8606-.8605-.8606h-25.5997c-.4303,0-.8643.4303-.8643.8606s.348.868.782.868c4.3215.3442,8.6468.5987,12.8822.5987,4.4113,0,8.7328-.2544,13.1441-.5987h-.2619,0ZM669.4033,184.7665h-7.0042c-.6959,0-1.2123-.5201-1.2123-1.1262,0-.6922.5201-1.2085,1.2123-1.2085h2.2487c1.8147.8643,3.2851,1.6425,4.8416,2.4208l-.086-.0861h0ZM673.6388,187.0152c1.5565.8606,2.8548,1.6425,4.1531,2.4208l-147.1778-.0861c-.6061,0-1.1262-.5163-1.1262-1.2123,0-.6061.5201-1.1225,1.1262-1.1225h143.0247ZM611.8096,193.9295h-13.2301c-.6959,0-1.2085-.5201-1.2085-1.2085,0-.6061.5163-1.1262,1.2085-1.1262h13.2301c.6024,0,1.1225.5201,1.1225,1.1262,0,.6922-.5201,1.2085-1.1225,1.2085ZM684.8822,193.9295h-67.363c-.6061,0-1.1262-.5201-1.1262-1.2085,0-.6061.5201-1.1262,1.1262-1.1262h63.902c1.3021.8643,2.4208,1.5602,3.547,2.3385h-.086v-.0037ZM516.5196,198.4269h174.7606c-.7782-.6061-1.8147-1.3844-2.9408-2.1626l-171.8197-.0861c-.6061,0-1.1262.5163-1.1262,1.1225s.5163,1.1262,1.1262,1.1262h0ZM606.6238,203.0103c.6024,0,1.1262-.5201,1.1262-1.1225,0-.6061-.5238-1.1262-1.1262-1.1262h-18.4197c-.6061,0-1.1225.5201-1.1225,1.1262,0,.6024.5163,1.1225,1.1225,1.1225h18.4197ZM697.0721,203.0103c-.8643-.6959-1.8147-1.4704-2.7688-2.2487h-81.1094c-.6061,0-1.1262.5201-1.1262,1.1262,0,.6024.5201,1.1225,1.1262,1.1225h83.8782ZM505.2762,207.5937h196.9854c-.7782-.6922-1.5603-1.4742-2.4208-2.1626l-194.5647-.0861c-.6024,0-1.1262.5163-1.1262,1.1225s.5201,1.1262,1.1262,1.1262ZM560.8795,209.9284h-3.7191c-.6061,0-1.1262.434-1.1262,1.1262,0,.6061.5201,1.1225,1.1262,1.1225h3.7191c.6922,0,1.2085-.5201,1.2085-1.1225,0-.6959-.5163-1.1262-1.2085-1.1262ZM571.2548,212.1771c.6024,0,1.1225-.5201,1.1225-1.1225,0-.6922-.5201-1.1262-1.1225-1.1262h-4.5871c-.6922,0-1.1225.434-1.1225,1.1262,0,.6061.4303,1.1225,1.1225,1.1225h4.5871ZM600.5661,212.1771c.6061,0,1.1262-.5201,1.1262-1.1225,0-.6922-.5201-1.1262-1.1262-1.1262h-4.5834c-.6922,0-1.1225.434-1.1225,1.1262,0,.6061.4303,1.1225,1.1225,1.1225h4.5834ZM704.6824,209.9284h-90.6241c-.6024,0-1.1262.434-1.1262,1.1262,0,.6061.5238,1.1225,1.1262,1.1225h92.959c-.6024-.6922-1.4705-1.4704-2.2487-2.2487h-.0862ZM508.7333,216.7568h202.6913c-.6922-.7782-1.3806-1.5565-2.0765-2.2487l-202.6913-.0861c.6922.7782,1.4704,1.5602,2.1626,2.3347h-.0861ZM571.2547,219.0055h-9.7729c-.6024,0-1.1262.5201-1.1262,1.1225,0,.6922.5238,1.2123,1.1262,1.2123h9.7729c.6024,0,1.1225-.5201,1.1225-1.2123,0-.6024-.5163-1.1225-1.1225-1.1225ZM713.4189,219.0055h-133.8617c-.6024,0-1.1225.5201-1.1225,1.1225,0,.6922.5201,1.2123,1.1225,1.2123h135.8521c-.6061-.6922-1.2123-1.4704-1.9007-2.2487l-.0898-.0861h0ZM719.121,225.8413c-.5201-.6061-1.1225-1.2983-1.6388-2.0766l-202.8672-.1759c.7782.9504,1.3844,1.6425,1.9905,2.4208l202.5154-.1684h0ZM720.8534,228.176h-157.6393c-.6061,0-1.1262.5163-1.1262,1.1225s.5201,1.1225,1.1262,1.1225h159.278c-.4303-.6061-1.0327-1.3844-1.5527-2.1626l-.086-.0823ZM523.0036,235.0044h202.6015c-.3442-.6061-.8605-1.3806-1.3806-2.1589l-202.7774-.0861c.6024.8643,1.2085,1.6425,1.7286,2.5068l-.1721-.2619ZM554.0473,237.3391h-8.1266c-.6061,0-1.1262.5201-1.1262,1.1262s.5201,1.1225,1.1262,1.1225h8.1266c.6061,0,1.1262-.5201,1.1262-1.1225s-.5201-1.1262-1.1262-1.1262ZM587.6839,237.3391h-25.3341c-.6061,0-1.1225.5201-1.1225,1.1262s.5163,1.1225,1.1225,1.1225h25.3341c.6061,0,1.1225-.5201,1.1225-1.1225s-.5163-1.1262-1.1225-1.1262ZM624.6954,237.3391h-28.709c-.6922,0-1.1225.5201-1.1225,1.1262s.4303,1.1225,1.1225,1.1225h28.709c.6959,0,1.2123-.5201,1.2123-1.1225s-.5201-1.1262-1.2123-1.1262ZM660.9249,237.3391h-14.9587c-.6061,0-1.1262.5201-1.1262,1.1262s.5201,1.1225,1.1262,1.1225h14.9587c.6061,0,1.1262-.5201,1.1262-1.1225s-.5201-1.1262-1.1262-1.1262ZM727.0793,237.3391h-56.1233c-.5987,0-1.1225.5201-1.1225,1.1262s.5238,1.1225,1.1225,1.1225h57.5938c-.3442-.6061-.8643-1.3844-1.3806-2.1626l-.0898-.0861ZM528.5336,244.1712h202.6913c-.4303-.6922-.8605-1.4704-1.2983-2.1626l-202.6913-.1721c.5201.8643.9541,1.6425,1.3844,2.4208l-.086-.0861ZM563.4723,246.4198h-20.9302c-.6922,0-1.2085.5201-1.2085,1.2123,0,.6061.5201,1.1225,1.2085,1.1225h20.9302c.6922,0,1.2085-.5163,1.2085-1.1225.0038-.6922-.5163-1.2123-1.2085-1.2123ZM593.6516,246.4198h-6.3158c-.6024,0-1.1225.5201-1.1225,1.2123,0,.6061.5201,1.1225,1.1225,1.1225h6.3158c.6959,0,1.2123-.5163,1.2123-1.1225,0-.6922-.5201-1.2123-1.2123-1.2123ZM624.6953,246.4198h-20.1483c-.6024,0-1.1262.5201-1.1262,1.2123,0,.6061.5238,1.1225,1.1262,1.1225h20.1483c.6959,0,1.2123-.5163,1.2123-1.1225,0-.6922-.5201-1.2123-1.2123-1.2123ZM666.9786,246.4198h-10.6373c-.6959,0-1.1262.5201-1.1262,1.2123,0,.6061.4303,1.1225,1.1262,1.1225h10.6373c.6024,0,1.1262-.5163,1.1262-1.1225,0-.6922-.5201-1.2123-1.1262-1.2123ZM680.4707,246.4198h51.9702c.434.8643.8643,1.5565,1.2085,2.3347h-53.1786c-.6061,0-1.1262-.5163-1.1262-1.1225,0-.6922.5201-1.2123,1.1262-1.2123h-.0002ZM533.2928,253.338h202.6053c-.348-.6922-.6922-1.4704-1.0364-2.2487l-202.695-.0861c.434.8643.7782,1.6425,1.1262,2.4208v-.0861h0ZM737.9747,257.8353c-.2619-.5201-.6061-1.2983-.9541-2.0766l-54.8213-.1721c-.6061,0-1.1225.5163-1.1225,1.1225,0,.6959.5163,1.1262,1.1225,1.1262h55.7754ZM670.4359,257.8353c.6061,0,1.1262-.434,1.1262-1.1262,0-.6061-.5201-1.1225-1.1262-1.1225h-45.1344c-.6959,0-1.1262.5163-1.1262,1.1225,0,.6959.4303,1.1262,1.1262,1.1262h45.1344ZM614.406,255.5867h-4.6732c-.6024,0-1.1225.5163-1.1225,1.1225,0,.6959.5201,1.1262,1.1225,1.1262h4.6732c.6061,0,1.1225-.434,1.1225-1.1262-.0038-.6061-.5163-1.1225-1.1225-1.1225ZM599.7055,257.8353c.6024,0,1.1225-.434,1.1225-1.1262,0-.6061-.5201-1.1225-1.1225-1.1225h-2.8548c-.6922,0-1.1262.5163-1.1262,1.1225,0,.6959.434,1.1262,1.1262,1.1262h2.8548ZM554.9116,255.5867h-10.7233c-.6061,0-1.1262.5163-1.1262,1.1225,0,.6959.5201,1.1262,1.1262,1.1262h10.7233c.6024,0,1.1225-.434,1.1225-1.1262,0-.6061-.5201-1.1225-1.1225-1.1225ZM738.925,260.1663h-202.6052c.348.868.6061,1.6463.9503,2.4245l202.6052-.1721c-.2582-.6061-.6024-1.3844-.9503-2.1626v-.0898ZM627.03,266.9984h114.4916c-.1758-.6061-.5201-1.4704-.7782-2.2487h-113.7134c-.6959,0-1.1225.5201-1.1225,1.1225s.4265,1.1262,1.1225,1.1262h0ZM578.1728,264.7497h-40.1244c.348.7782.6061,1.6425.9503,2.4208l39.1741-.1721c.6024,0,1.1225-.5201,1.1225-1.1225s-.5201-1.1262-1.1225-1.1262ZM742.2962,269.3369h-202.6015c.2544.8643.6024,1.6388.7745,2.5068l202.6053-.2582c-.1721-.6061-.434-1.3844-.6959-2.2487h-.0823ZM645.1018,276.1652h99.3608c-.1758-.6922-.434-1.3844-.6099-2.1626l-98.7509-.1721c-.6024,0-1.1225.5201-1.1225,1.2085,0,.6099.5201,1.1262,1.1225,1.1262ZM541.7675,276.1652h44.1915c.6061,0,1.1262-.5163,1.1262-1.1262,0-.6922-.5201-1.2085-1.1262-1.2085h-44.7939c.2582.9504.4303,1.6425.6922,2.4208l-.0898-.0861ZM745.0649,278.4139h-202.6052c.1721.7782.348,1.5565.5201,2.3347h202.6913c-.1758-.7782-.434-1.5602-.6024-2.2487v-.0861h-.0038ZM688.2531,285.332h52.8345c.6922,0,1.2085-.5201,1.2085-1.2123,0-.6061-.5201-1.1225-1.2085-1.1225h-52.8343c-.6959,0-1.1262.5201-1.1262,1.1225,0,.6922.4303,1.2123,1.1262,1.2123h-.0002ZM543.5821,282.9973h132.0433c.6061,0,1.1262.5201,1.1262,1.1225,0,.6922-.5201,1.2123-1.1262,1.2123h-131.5194c-.1758-.6061-.348-1.3844-.5238-2.0766v-.2582ZM747.1377,287.5807h-202.6015c.1721.9504.3442,1.7323.4303,2.4208l202.6052-.1721c-.086-.5163-.1758-1.2983-.348-2.0728,0,0-.086-.1759-.086-.1758ZM726.1251,294.4128h13.3199c.6024,0,1.1262-.5201,1.1262-1.1262,0-.6024-.5238-1.1225-1.1262-1.1225h-13.3199c-.6024,0-1.1225.5201-1.1225,1.1225,0,.6061.5201,1.1262,1.1225,1.1262ZM697.1579,292.1641h-6.312c-.6959,0-1.2085.5201-1.2085,1.1225,0,.6061.5163,1.1262,1.2085,1.1262h6.312c.6061,0,1.1262-.5201,1.1262-1.1262,0-.6024-.5201-1.1225-1.1262-1.1225ZM680.7287,294.4128h-30.4413c-.6024,0-1.1262-.5201-1.1262-1.1262,0-.6024.5238-1.1225,1.1262-1.1225h30.4413c.6922,0,1.2085.5201,1.2085,1.1225,0,.6061-.5163,1.1262-1.2085,1.1262ZM545.7446,294.4128h94.5155c.6061,0,1.1262-.5201,1.1262-1.1262,0-.6024-.5201-1.1225-1.1262-1.1225h-94.8594c.0823.9504.2544,1.6425.3442,2.417v-.1684h-.0003ZM748.6941,296.7438h-202.6015c.0823.9504.1721,1.6425.2544,2.4208l202.6052-.1721c-.0823-.6061-.1721-1.2983-.2582-2.0728v-.1759h0ZM739.445,301.2411h-9.859c-.6061,0-1.1225.5201-1.1225,1.2123,0,.6061.5163,1.1225,1.1225,1.1225h9.859c.6024,0,1.1262-.5201,1.1262-1.1225-.0038-.6922-.5238-1.2123-1.1262-1.2123ZM655.477,303.5759h43.4096c.6061,0,1.1262-.5201,1.1262-1.1225,0-.6922-.5201-1.2123-1.1262-1.2123h-43.4093c-.6922,0-1.1262.5201-1.1262,1.2123,0,.6061.4378,1.1225,1.1262,1.1225h-.0003ZM546.7811,303.5759h98.6648c.6024,0,1.1225-.5201,1.1225-1.1225,0-.6922-.5201-1.2123-1.1225-1.2123h-98.8369c.0823,1.0364.1721,1.8147.1721,2.5929v-.2582ZM749.6483,305.8245h-202.6913c.0823.7782.0823,1.5565.1721,2.3347h202.6052c.0038-.7745-.086-1.5527-.086-2.3347ZM739.445,310.4079h-3.8052c-.6024,0-1.1262.5201-1.1262,1.1262,0,.6922.5238,1.2085,1.1262,1.2085h3.8052c.6024,0,1.1262-.5201,1.1262-1.2085-.0038-.6061-.5238-1.1262-1.1262-1.1262ZM661.5308,312.7427h35.6233c.6061,0,1.1262-.5201,1.1262-1.2085,0-.6061-.5201-1.1262-1.1262-1.1262h-35.6233c-.6922,0-1.2085.5201-1.2085,1.1262,0,.6884.5201,1.2085,1.2085,1.2085ZM547.3011,312.7427h104.9806c.6922,0,1.2085-.5201,1.2085-1.2085,0-.6061-.5201-1.1262-1.2085-1.1262h-105.0629c0,.8643.0823,1.6425.0823,2.4208v-.0861ZM749.9925,314.9914h-202.6913v2.1589l202.6913.0861v-2.2449ZM688.5112,321.8234c.6061,0,1.1262-.5201,1.1262-1.1225,0-.6061-.5201-1.1225-1.1262-1.1225h-20.152c-.6024,0-1.1225.5163-1.1225,1.1225s.5201,1.1225,1.1225,1.1225h20.152ZM547.2188,321.8234h111.981c.6061,0,1.1262-.5201,1.1262-1.1225,0-.6061-.5201-1.1225-1.1262-1.1225h-111.895c-.0038.6884-.086,1.4667-.086,2.2449ZM749.738,324.1582h-202.6053c-.086.6922-.086,1.4704-.1721,2.2487h202.6913c0-.7782.086-1.5565.086-2.3385v.0898h0ZM670.0915,330.9903h3.8052c.6061,0,1.1262-.5201,1.1262-1.1262,0-.6922-.5201-1.1225-1.1262-1.1225h-3.8052c-.6061,0-1.1262.4303-1.1262,1.1225.0038.6061.5201,1.1262,1.1262,1.1262ZM546.609,330.9903h116.0444c.6099,0,1.1262-.5201,1.1262-1.1262,0-.6922-.5163-1.1225-1.1262-1.1225h-115.8722c0,.5201-.086,1.2983-.1721,2.0728,0,0,0,.1759,0,.1758ZM748.956,333.2389h-202.6052c-.0823.6061-.1721,1.3844-.2544,2.1626l202.6015.1721c.086-.9504.1758-1.7286.2582-2.5068v.1721h0ZM690.2398,340.1571c.6061,0,1.1225-.5201,1.1225-1.2123,0-.6061-.5163-1.1262-1.1225-1.1262h-144.4952c-.086.6061-.2582,1.3844-.3442,2.1626l144.8394.1759ZM747.5717,342.4057h-202.6052c-.086.6024-.2582,1.3806-.4303,2.0728l202.6015.2582c.2582-.9504.348-1.7286.5201-2.5068l-.086.1759h0ZM543.582,349.2341h138.011c.6922,0,1.2085-.5163,1.2085-1.1225s-.5201-1.1225-1.2085-1.1225h-137.4872c-.1758.5201-.348,1.2983-.5238,2.0766v.1684ZM745.671,351.5688h-202.6913c-.1721.6959-.348,1.4704-.5201,2.2487h202.6052c.1684-.7782.4303-1.5527.6061-2.2487h0ZM553.7029,358.4009h121.058c.6024,0,1.1225-.5201,1.1225-1.1262s-.5201-1.1225-1.1225-1.1225h-121.058c-.6099,0-1.13.5201-1.13,1.1225,0,.6099.5201,1.1262,1.13,1.1262ZM743.0743,360.7356h-202.6052c-.1721.5201-.5201,1.3844-.7745,2.1626l202.6015.0861c.3442-.8643.6061-1.7286.8643-2.5068l-.086.2582h0ZM570.1324,367.5677h98.5788c.6061,0,1.1262-.5201,1.1262-1.1262,0-.6922-.5201-1.2085-1.1262-1.2085h-98.5788c-.6922,0-1.2085.5201-1.2085,1.2085-.0038.6061.5163,1.1262,1.2085,1.1262ZM739.8756,369.8164h-202.6876c-.2619.6922-.5238,1.4704-.868,2.2487l202.6052.0861c.348-.8643.6922-1.6425.9503-2.5068,0,0,0,.1721,0,.1721ZM565.8072,376.6485h94.2498c.6061,0,1.1262-.434,1.1262-1.1262,0-.6061-.5201-1.1225-1.1262-1.1225h-94.2498c-.6959,0-1.1262.5201-1.1262,1.1225.0038.6922.434,1.1262,1.1262,1.1262ZM735.8984,378.9832h-202.6052c-.348.6922-.6922,1.4704-1.1262,2.2487h202.6052c.434-.7782.7782-1.5602,1.1262-2.3385v.0898ZM570.1324,385.8153h82.1496c.6922,0,1.2085-.5201,1.2085-1.1262s-.5201-1.1262-1.2085-1.1262h-82.1496c-.6922,0-1.2085.5201-1.2085,1.1262s.5163,1.1262,1.2085,1.1262ZM731.2251,388.1463h-202.6913c-.3442.6061-.7782,1.3844-1.2085,2.1626l202.5192.0861c.5201-.8643.9503-1.6425,1.3806-2.3385v.0898ZM578.6931,394.9784h72.7246c.6922,0,1.2085-.5201,1.2085-1.1225,0-.6922-.5201-1.2123-1.2085-1.2123h-72.7246c-.6061,0-1.1262.5201-1.1262,1.2123,0,.6024.5201,1.1225,1.1262,1.1225ZM725.6053,397.2271h-202.6015c-.348.6061-.9541,1.3844-1.4705,2.1626l202.6015.1721c.6061-.9503,1.1262-1.7286,1.6425-2.5068l-.1721.1721h0ZM675.6256,404.1452c.6061,0,1.1262-.5201,1.1262-1.2123,0-.6024-.5201-1.1225-1.1262-1.1225h-5.5338c-.6061,0-1.1262.5201-1.1262,1.1225,0,.6959.5201,1.2123,1.1262,1.2123h5.5338ZM575.7522,404.1452h75.6655c.6922,0,1.2085-.5201,1.2085-1.2123,0-.6024-.5201-1.1225-1.2085-1.1225h-75.6655c-.6061,0-1.1225.5201-1.1225,1.1225,0,.6959.5126,1.2123,1.1225,1.2123ZM719.1211,406.3901h-202.6913c-.4303.6061-1.0364,1.3881-1.6388,2.0766l202.5192.1758c.6922-.8606,1.2946-1.6426,1.9007-2.331l-.0898.0786h0ZM671.3077,410.981h-7.1801c-.6922,0-1.2085.5201-1.2085,1.0364,0,.6061.5201,1.1262,1.2085,1.1262h7.1801c.6024,0,1.1225-.5201,1.1225-1.1262-.0038-.5201-.5201-1.0364-1.1225-1.0364ZM576.0963,413.1436h71.0821c.6024,0,1.1225-.5201,1.1225-1.1262,0-.5201-.5201-1.0364-1.1225-1.0364h-71.0821c-.6061,0-1.1262.5201-1.1262,1.0364.0038.6061.5201,1.1262,1.1262,1.1262ZM711.4247,415.4746h-202.6912c-.6061.6959-1.3844,1.4704-2.0766,2.2524h202.6053c.782-.7857,1.4742-1.5602,2.1626-2.2524h-.0001ZM666.1144,420.0543h-5.4477c-.6922,0-1.2048.4303-1.2048,1.1262,0,.6061.5163,1.1262,1.2048,1.1262h5.4477c.6061,0,1.1262-.5201,1.1262-1.1262,0-.6922-.5201-1.1262-1.1262-1.1262ZM582.1539,422.3067h53.7849c.6024,0,1.1225-.5201,1.1225-1.1262,0-.6959-.5201-1.1262-1.1225-1.1262h-53.7849c-.6061,0-1.1262.4303-1.1262,1.1262,0,.6061.5163,1.1262,1.1262,1.1262ZM702.2616,424.5479h-196.9854c-.6024,0-1.1262.5201-1.1262,1.2123,0,.6061.5238,1.1262,1.1262,1.1262h194.4786c.9503-.8606,1.7323-1.5565,2.5929-2.3385h-.086ZM583.8788,431.4698h46.8668c.6024,0,1.1262-.5201,1.1262-1.2048,0-.6061-.5238-1.1262-1.1262-1.1262h-46.8667c-.6061,0-1.1262.5201-1.1262,1.1262.0038.6847.5201,1.2048,1.1262,1.2048h-.0001ZM691.2801,433.7222h-174.7606c-.6061,0-1.1262.5201-1.1262,1.1262,0,.6884.5201,1.2048,1.1262,1.2048h171.6477c1.2983-.9503,2.3347-1.6426,3.2888-2.4171l-.1758.0861ZM589.0683,438.3018h27.0627c.6061,0,1.1262.5201,1.1262,1.1262s-.5201,1.1262-1.1262,1.1262h-27.0627c-.6061,0-1.1262-.5201-1.1262-1.1262s.5201-1.1262,1.1262-1.1262ZM677.702,442.8852h-147.088c-.6061,0-1.1262.5201-1.1262,1.1262s.5201,1.1262,1.1262,1.1262h143.0247c1.5565-.782,2.8548-1.5565,4.1531-2.3385,0,0-.0898.0861-.0898.086ZM549.6361,454.3007h104.0265c2.0765-.782,4.0671-1.5565,6.0538-2.4171l-110.0803.0861c-.6024,0-1.1225.5201-1.1225,1.2048,0,.6061.5201,1.1262,1.1225,1.1262h0Z" style="fill-rule: evenodd;"/>
  <path d="M547.3014,316.1139c0-81.1992-66.2368-147.35-147.35-147.35s-147.2602,66.1507-147.2602,147.35c0,81.1132,66.1507,147.2676,147.2602,147.2676s147.35-66.1545,147.35-147.2676Z" style="fill: #fff; fill-rule: evenodd;"/>
  <path d="M438.1715,173.7813c-12.3658-3.2851-25.248-5.0137-38.22-5.0137-12.7961,0-25.596,1.6425-38.0479,5.0137-4.6695,5.1035-9.425,10.6372-13.9223,16.4292,17.9857,4.9276,35.455,11.2434,52.1423,19.1119,17.0353-8.0406,34.5046-14.3526,52.4042-19.1942-4.6695-5.2756-9.4287-10.8954-14.3563-16.2608,0,0,0-.0861,0-.0861ZM399.9514,260.9484c-19.5421,9.1668-37.3557,22.135-52.3144,38.0441,2.5929,21.8769,9.4287,42.8034,20.0622,62.0013,10.6373,1.8147,21.4429,2.8511,32.2522,2.8511,10.9815,0,21.8806-1.0364,32.6002-3.113,10.4651-19.1942,17.2112-40.1244,19.8864-61.8255-14.7829-15.6509-32.5964-28.6192-52.3967-37.8758l-.0898-.0823ZM276.4689,235.8687c-14.0982,21.5327-22.2211,46.6086-23.6092,72.5525,3.6331,6.4841,7.5243,12.7101,11.5876,18.7639,9.9451-15.9989,21.4429-30.6134,34.0706-44.2738-2.4208-18.2476-3.0269-37.0115-2.0766-55.6893-6.4841,2.765-13.2339,5.5338-19.9762,8.5607v.0861h.0037ZM523.5238,235.8687c14.1842,21.7908,22.3109,46.8667,23.6092,72.8107-3.3711,5.7919-7.2661,12.0179-11.3294,18.0717-9.859-15.1308-21.2745-29.7454-33.8985-43.4095,1.2983-13.4023,2.0803-26.1984,2.0803-39.0843,0-5.5338-.1758-10.9815-.434-16.519,6.9181,2.5068,13.7502,5.2756,20.4064,8.3025l-.434-.1721ZM285.4636,408.8147c16.3431,20.1483,37.7897,35.6234,62.0013,44.8762,7.0042-1.5565,14.1805-3.2888,21.1847-5.2756-11.8458-13.9223-22.2211-29.3974-31.3018-45.4823-18.1615-3.8052-36.0611-8.991-53.3546-15.5649.1721,7.3522.6922,14.7006,1.5565,21.9667l-.0861-.5201ZM516.0856,387.282c-16.8632,6.4841-34.7665,11.6737-52.9243,15.3067-9.2566,15.9952-19.718,31.3879-31.3018,45.8266,7.0042,2.1626,14.1805,3.895,21.3605,5.3654,23.7739-9.4287,45.1344-24.9936,61.3915-45.0521.6959-7.1763,1.2123-14.5247,1.5565-21.8769l-.0823.4303Z" style="fill: #ee3224; fill-rule: evenodd;"/>
</svg>